<svg width="30" height="30" viewBox="0 0 30 30" fill="none" xmlns="http://www.w3.org/2000/svg">
<circle cx="15" cy="15" r="15" fill="white"/>
<path d="M24.3723 8.22656H18.0016C17.6551 8.22656 17.3738 8.50742 17.3738 8.8543V10.1223C17.3738 10.4688 17.6551 10.75 18.0016 10.75H20.6926L15.1863 16.2559L12.852 13.9215C12.359 13.4289 11.5602 13.4289 11.0672 13.9215L5.18398 19.8055C4.93867 20.0504 4.93867 20.448 5.18398 20.693L6.08047 21.5898C6.32539 21.8348 6.72305 21.8348 6.96797 21.5898L11.9598 16.598L14.2937 18.9324C14.7867 19.4255 15.5856 19.4257 16.0785 18.9324L22.4766 12.5344V15.2254C22.4766 15.5719 22.7574 15.8531 23.1043 15.8531H24.3723C24.7191 15.8531 25 15.5719 25 15.2254V8.8543C25 8.50742 24.7191 8.22656 24.3723 8.22656Z" fill="#222222"/>
</svg>
