<svg width="17" height="16" viewBox="0 0 17 16" fill="none" xmlns="http://www.w3.org/2000/svg">
<path d="M12.0529 7.52849C11.9892 7.58998 11.9385 7.66355 11.9035 7.74488C11.8686 7.82622 11.8502 7.9137 11.8494 8.00222C11.8486 8.09074 11.8655 8.17853 11.899 8.26046C11.9326 8.34239 11.9821 8.41682 12.0447 8.47942C12.1072 8.54201 12.1817 8.59151 12.2636 8.62503C12.3455 8.65856 12.4333 8.67542 12.5219 8.67465C12.6104 8.67388 12.6979 8.65549 12.7792 8.62055C12.8605 8.58562 12.9341 8.53483 12.9956 8.47115L14.0249 7.44182C14.6833 6.76812 15.0496 5.86198 15.0442 4.91998C15.0388 3.97798 14.6622 3.07609 13.9961 2.40998C13.33 1.74388 12.4281 1.36727 11.4861 1.36188C10.5441 1.35648 9.63795 1.72272 8.96425 2.38115L7.93492 3.41049C7.87124 3.47198 7.82045 3.54555 7.78551 3.62688C7.75058 3.70822 7.73218 3.7957 7.73142 3.88422C7.73065 3.97274 7.74751 4.06053 7.78104 4.14246C7.81456 4.22439 7.86406 4.29882 7.92665 4.36142C7.98925 4.42401 8.06368 4.47351 8.14561 4.50704C8.22754 4.54056 8.31533 4.55742 8.40385 4.55665C8.49237 4.55588 8.57985 4.53749 8.66119 4.50255C8.74252 4.46762 8.81608 4.41683 8.87758 4.35315L9.90692 3.32382C10.115 3.11345 10.3626 2.94628 10.6355 2.83193C10.9084 2.71757 11.2012 2.65829 11.4971 2.65748C11.793 2.65667 12.0862 2.71435 12.3597 2.82721C12.6332 2.94007 12.8817 3.10588 13.091 3.31511C13.3002 3.52434 13.466 3.77286 13.5789 4.04639C13.6917 4.31991 13.7494 4.61305 13.7486 4.90894C13.7478 5.20484 13.6885 5.49765 13.5741 5.77056C13.4598 6.04346 13.2926 6.29107 13.0823 6.49915L12.0529 7.52849ZM4.75958 8.47115C4.82326 8.40966 4.87404 8.33609 4.90898 8.25476C4.94392 8.17342 4.96231 8.08594 4.96308 7.99742C4.96385 7.9089 4.94699 7.82112 4.91346 7.73918C4.87994 7.65725 4.83044 7.58282 4.76785 7.52022C4.70525 7.45763 4.63082 7.40813 4.54889 7.37461C4.46695 7.34109 4.37917 7.32422 4.29065 7.32499C4.20213 7.32576 4.11465 7.34415 4.03331 7.37909C3.95198 7.41402 3.87841 7.46481 3.81692 7.52849L2.78758 8.55782C2.12915 9.23152 1.76291 10.1377 1.7683 11.0797C1.7737 12.0217 2.15031 12.9235 2.81641 13.5897C3.48252 14.2558 4.38441 14.6324 5.32641 14.6378C6.26841 14.6432 7.17455 14.2769 7.84825 13.6185L8.87758 12.5892C8.99902 12.4634 9.06622 12.295 9.0647 12.1202C9.06318 11.9454 8.99307 11.7782 8.86946 11.6546C8.74586 11.531 8.57865 11.4609 8.40385 11.4594C8.22905 11.4579 8.06065 11.525 7.93492 11.6465L6.90558 12.6758C6.48372 13.0931 5.91383 13.3264 5.32046 13.3248C4.72709 13.3232 4.15849 13.0867 3.73891 12.6672C3.31933 12.2476 3.0829 11.679 3.08128 11.0856C3.07965 10.4922 3.31297 9.92235 3.73025 9.50049L4.75958 8.47115Z" fill="white"/>
<path d="M5.87625 10.533C6.00127 10.658 6.17081 10.7282 6.34758 10.7282C6.52436 10.7282 6.6939 10.658 6.81892 10.533L10.9396 6.41231C11.0033 6.35081 11.054 6.27724 11.089 6.19591C11.1239 6.11457 11.1423 6.02709 11.1431 5.93857C11.1439 5.85005 11.127 5.76227 11.0935 5.68034C11.0599 5.5984 11.0104 5.52397 10.9478 5.46138C10.8853 5.39878 10.8108 5.34928 10.7289 5.31576C10.647 5.28224 10.5592 5.26537 10.4706 5.26614C10.3821 5.26691 10.2946 5.2853 10.2133 5.32024C10.132 5.35518 10.0584 5.40597 9.99692 5.46964L5.87625 9.58697C5.81386 9.64894 5.76435 9.72263 5.73057 9.80381C5.69678 9.88498 5.67939 9.97204 5.67939 10.06C5.67939 10.1479 5.69678 10.235 5.73057 10.3161C5.76435 10.3973 5.81386 10.471 5.87625 10.533Z" fill="white"/>
</svg>
