<svg width="16" height="17" viewBox="0 0 16 17" fill="none" xmlns="http://www.w3.org/2000/svg">
<path d="M9.35156 14H4.875C3.8411 14 3 13.1589 3 12.125V5.77344C3 4.73954 3.8411 3.89844 4.875 3.89844H9.35156C10.3855 3.89844 11.2266 4.73954 11.2266 5.77344V12.125C11.2266 13.1589 10.3855 14 9.35156 14ZM4.875 4.83594C4.35809 4.83594 3.9375 5.25652 3.9375 5.77344V12.125C3.9375 12.6419 4.35809 13.0625 4.875 13.0625H9.35156C9.86848 13.0625 10.2891 12.6419 10.2891 12.125V5.77344C10.2891 5.25652 9.86848 4.83594 9.35156 4.83594H4.875ZM13.1016 10.9531V3.875C13.1016 2.8411 12.2605 2 11.2266 2H6.02344C5.76452 2 5.55469 2.20984 5.55469 2.46875C5.55469 2.72766 5.76452 2.9375 6.02344 2.9375H11.2266C11.7435 2.9375 12.1641 3.35809 12.1641 3.875V10.9531C12.1641 11.212 12.3739 11.4219 12.6328 11.4219C12.8917 11.4219 13.1016 11.212 13.1016 10.9531Z" fill="white"/>
</svg>
