<svg width="20" height="20" viewBox="0 0 20 20" fill="none" xmlns="http://www.w3.org/2000/svg">
<path d="M11.6298 10.0012L15.6602 5.97071C16.1125 5.5208 16.1125 4.79203 15.6649 4.33978C15.215 3.88752 14.4862 3.88752 14.034 4.33509L14.0316 4.33744L10.0012 8.3679L5.96837 4.33978C5.51845 3.88987 4.78735 3.88987 4.33743 4.33978C3.88752 4.78969 3.88752 5.5208 4.33743 5.97071L8.3679 10.0012L4.33743 14.0316C3.88752 14.4815 3.88752 15.2127 4.33743 15.6626C4.78735 16.1125 5.51845 16.1125 5.96837 15.6626L9.99883 11.6321L14.0293 15.6626C14.4792 16.1125 15.2103 16.1125 15.6602 15.6626C16.1101 15.2127 16.1101 14.4815 15.6602 14.0316L11.6298 10.0012Z" fill="#E43021"/>
</svg>
