<svg width="32" height="32" viewBox="0 0 32 32" fill="none" xmlns="http://www.w3.org/2000/svg">
<path d="M11.195 6.36501C11.205 6.33501 11.21 6.30501 11.22 6.27501H7.955C7.55772 6.27619 7.16599 6.36828 6.80979 6.54421C6.4536 6.72014 6.14239 6.97525 5.9 7.29001L2.53 11.72C2.28301 12.0428 2.11673 12.4199 2.045 12.82H9.37L11.195 6.36501ZM9.375 13.82H2.06C2.14205 14.2178 2.3187 14.5899 2.575 14.905L13.88 28.905L13.825 28.72L9.375 13.82ZM18.175 28.715C17.6835 29.6465 29.525 14.6805 29.425 14.905C29.6808 14.589 29.8589 14.2174 29.945 13.82H22.625L18.175 28.715ZM26.1 7.29001C25.8576 6.97525 25.5464 6.72014 25.1902 6.54421C24.834 6.36828 24.4423 6.27619 24.045 6.27501H20.775C20.7889 6.30583 20.8005 6.33757 20.81 6.37001L22.63 12.82H29.955C29.8833 12.4199 29.717 12.0428 29.47 11.72L26.1 7.29001ZM10.42 13.82L14.785 28.43L15.14 29.61C15.2515 29.988 15.6735 29.9935 16 30C16.3265 29.9935 16.749 29.988 16.86 29.61L17.215 28.43L21.58 13.82H10.42ZM21.585 12.82C21.482 12.4485 19.9015 6.83701 19.845 6.64001C19.8159 6.53506 19.7532 6.44253 19.6665 6.3766C19.5798 6.31068 19.4739 6.27499 19.365 6.27501H12.635C12.13 6.25501 12.093 6.93201 11.975 7.27501L10.415 12.82H21.585ZM8.6 26.01C7.9557 25.8816 7.3639 25.5652 6.89936 25.1007C6.43482 24.6361 6.11837 24.0443 5.99 23.4C5.96705 23.287 5.90572 23.1854 5.81642 23.1124C5.72712 23.0394 5.61533 22.9995 5.5 22.9995C5.38466 22.9995 5.27287 23.0394 5.18357 23.1124C5.09427 23.1854 5.03295 23.287 5.01 23.4C4.88162 24.0443 4.56518 24.6361 4.10064 25.1007C3.63609 25.5652 3.0443 25.8816 2.4 26.01C2.28855 26.0348 2.18888 26.0969 2.11746 26.186C2.04603 26.2751 2.0071 26.3858 2.0071 26.5C2.0071 26.6142 2.04603 26.725 2.11746 26.814C2.18888 26.9031 2.28855 26.9652 2.4 26.99C3.0443 27.1184 3.63609 27.4348 4.10064 27.8994C4.56518 28.3639 4.88162 28.9557 5.01 29.6C5.03295 29.713 5.09427 29.8147 5.18357 29.8877C5.27287 29.9606 5.38466 30.0005 5.5 30.0005C5.61533 30.0005 5.72712 29.9606 5.81642 29.8877C5.90572 29.8147 5.96705 29.713 5.99 29.6C6.11837 28.9557 6.43482 28.3639 6.89936 27.8994C7.3639 27.4348 7.9557 27.1184 8.6 26.99C8.71145 26.9652 8.81111 26.9031 8.88254 26.814C8.95397 26.725 8.99289 26.6142 8.99289 26.5C8.99289 26.3858 8.95397 26.2751 8.88254 26.186C8.81111 26.0969 8.71145 26.0348 8.6 26.01ZM25.4 4.99001C25.7973 5.06949 26.1622 5.26479 26.4487 5.5513C26.7352 5.83781 26.9305 6.2027 27.01 6.60001C27.0329 6.71304 27.0943 6.81466 27.1836 6.88765C27.2729 6.96064 27.3847 7.00051 27.5 7.00051C27.6153 7.00051 27.7271 6.96064 27.8164 6.88765C27.9057 6.81466 27.967 6.71304 27.99 6.60001C28.0695 6.2027 28.2648 5.83781 28.5513 5.5513C28.8378 5.26479 29.2027 5.06949 29.6 4.99001C29.7115 4.9652 29.8111 4.90313 29.8825 4.81405C29.954 4.72496 29.9929 4.61419 29.9929 4.50001C29.9929 4.38583 29.954 4.27506 29.8825 4.18598C29.8111 4.0969 29.7115 4.03483 29.6 4.01001C29.2027 3.93059 28.8377 3.73532 28.5512 3.4488C28.2647 3.16228 28.0694 2.79735 27.99 2.40001C27.967 2.28698 27.9057 2.18537 27.8164 2.11238C27.7271 2.03938 27.6153 1.99951 27.5 1.99951C27.3847 1.99951 27.2729 2.03938 27.1836 2.11238C27.0943 2.18537 27.0329 2.28698 27.01 2.40001C26.9306 2.79735 26.7353 3.16228 26.4488 3.4488C26.1623 3.73532 25.7973 3.93059 25.4 4.01001C25.2885 4.03483 25.1889 4.0969 25.1175 4.18598C25.046 4.27506 25.0071 4.38583 25.0071 4.50001C25.0071 4.61419 25.046 4.72496 25.1175 4.81405C25.1889 4.90313 25.2885 4.9652 25.4 4.99001Z" fill="white"/>
</svg>
