<svg width="13" height="16" viewBox="0 0 13 16" fill="none" xmlns="http://www.w3.org/2000/svg">
<path d="M12.8627 3.88725L9.11275 0.137344C9.0248 0.0494651 8.90558 7.02632e-05 8.78125 0L2.21875 0C1.44334 0 0.8125 0.630844 0.8125 1.40625V14.5938C0.8125 15.3692 1.44334 16 2.21875 16H11.5938C12.3692 16 13 15.3692 13 14.5938V4.21875C13 4.09094 12.9463 3.97091 12.8627 3.88725ZM9.25 1.60041L11.3996 3.75H9.71875C9.46028 3.75 9.25 3.53972 9.25 3.28125V1.60041ZM11.5938 15.0625H2.21875C1.96028 15.0625 1.75 14.8522 1.75 14.5938V1.40625C1.75 1.14778 1.96028 0.9375 2.21875 0.9375H8.3125V3.28125C8.3125 4.05666 8.94334 4.6875 9.71875 4.6875H12.0625V14.5938C12.0625 14.8522 11.8522 15.0625 11.5938 15.0625Z" fill="white"/>
<path d="M9.71875 6.625H4.09375C3.83487 6.625 3.625 6.83487 3.625 7.09375C3.625 7.35263 3.83487 7.5625 4.09375 7.5625H9.71875C9.97762 7.5625 10.1875 7.35263 10.1875 7.09375C10.1875 6.83487 9.97762 6.625 9.71875 6.625ZM9.71875 8.5H4.09375C3.83487 8.5 3.625 8.70988 3.625 8.96875C3.625 9.22762 3.83487 9.4375 4.09375 9.4375H9.71875C9.97762 9.4375 10.1875 9.22762 10.1875 8.96875C10.1875 8.70988 9.97762 8.5 9.71875 8.5ZM9.71875 10.375H4.09375C3.83487 10.375 3.625 10.5849 3.625 10.8438C3.625 11.1026 3.83487 11.3125 4.09375 11.3125H9.71875C9.97762 11.3125 10.1875 11.1026 10.1875 10.8438C10.1875 10.5849 9.97762 10.375 9.71875 10.375ZM7.84375 12.25H4.09375C3.83487 12.25 3.625 12.4599 3.625 12.7188C3.625 12.9776 3.83487 13.1875 4.09375 13.1875H7.84375C8.10262 13.1875 8.3125 12.9776 8.3125 12.7188C8.3125 12.4599 8.10262 12.25 7.84375 12.25Z" fill="white"/>
</svg>
