<svg width="16" height="16" viewBox="0 0 16 16" fill="none" xmlns="http://www.w3.org/2000/svg">
<path d="M9.41841 4.0056L2.80893 10.6156C2.77565 10.649 2.75193 10.6906 2.74024 10.7363L2.00762 13.6768C1.99685 13.7205 1.99751 13.7661 2.00954 13.8094C2.02157 13.8527 2.04457 13.8922 2.07631 13.924C2.12506 13.9726 2.19107 13.9999 2.2599 14C2.28114 14 2.30229 13.9974 2.32288 13.9922L5.26339 13.2595C5.30911 13.248 5.35085 13.2243 5.38413 13.1909L11.9942 6.58136L9.41841 4.0056ZM13.6317 3.10434L12.8959 2.36862C12.4042 1.87688 11.5471 1.87737 11.056 2.36862L10.1547 3.26988L12.7304 5.84555L13.6317 4.94431C13.8773 4.69878 14.0126 4.37196 14.0126 4.02438C14.0126 3.6768 13.8773 3.34998 13.6317 3.10434Z" fill="#8761FF"/>
</svg>
