<svg width="30" height="30" viewBox="0 0 30 30" fill="none" xmlns="http://www.w3.org/2000/svg">
<circle cx="15" cy="15" r="15" fill="white"/>
<g clip-path="url(#clip0_4868_5980)">
<path d="M15 3C8.36705 3 3 8.36752 3 15C3 21.633 8.36752 27 15 27C21.633 27 27 21.6325 27 15C27 8.36705 21.6324 3 15 3ZM15 25.125C9.40345 25.125 4.875 20.5962 4.875 15C4.875 9.40345 9.40383 4.875 15 4.875C20.5965 4.875 25.125 9.40383 25.125 15C25.125 20.5965 20.5961 25.125 15 25.125Z" fill="#222222"/>
<path d="M15 13.0466C14.4822 13.0466 14.0625 13.4663 14.0625 13.9841V20.0213C14.0625 20.5391 14.4822 20.9588 15 20.9588C15.5178 20.9588 15.9375 20.539 15.9375 20.0213V13.9841C15.9375 13.4663 15.5178 13.0466 15 13.0466Z" fill="#222222"/>
<path d="M15 11.8987C15.699 11.8987 16.2656 11.332 16.2656 10.6331C16.2656 9.93407 15.699 9.36743 15 9.36743C14.301 9.36743 13.7344 9.93407 13.7344 10.6331C13.7344 11.332 14.301 11.8987 15 11.8987Z" fill="#222222"/>
</g>
<defs>
<clipPath id="clip0_4868_5980">
<rect width="24" height="24" fill="white" transform="translate(3 3)"/>
</clipPath>
</defs>
</svg>
