<svg width="17" height="17" viewBox="0 0 17 17" fill="none" xmlns="http://www.w3.org/2000/svg">
<g clip-path="url(#clip0_4868_6013)">
<path d="M13.9787 1.58406C13.2536 1.149 12.4805 0.9375 11.6154 0.9375C10.5804 0.9375 9.56433 1.24228 8.58177 1.53703C7.62189 1.82497 6.71524 2.09694 5.81783 2.097H5.81749C5.21752 2.097 4.67427 1.97 4.16455 1.71006V1.40625C4.16455 1.14737 3.95468 0.9375 3.6958 0.9375C3.43693 0.9375 3.22705 1.14737 3.22705 1.40625V16.4688C3.22705 16.7276 3.43693 16.9375 3.6958 16.9375C3.95468 16.9375 4.16455 16.7276 4.16455 16.4688V9.10791C4.68227 9.30791 5.22868 9.40625 5.81786 9.40625C6.85289 9.40625 7.86883 9.10147 8.85133 8.80672C9.81127 8.51875 10.718 8.24675 11.6154 8.24675C12.3058 8.24675 12.921 8.41453 13.4963 8.75972C13.5674 8.80239 13.6486 8.82543 13.7316 8.82647C13.8145 8.82752 13.8962 8.80654 13.9684 8.76567C14.0406 8.7248 14.1006 8.66551 14.1424 8.59385C14.1842 8.52219 14.2062 8.44073 14.2062 8.35778V1.986C14.2062 1.90506 14.1853 1.82549 14.1454 1.75505C14.1055 1.68461 14.0481 1.6257 13.9787 1.58406ZM8.58199 7.90878C7.62202 8.19675 6.7153 8.46875 5.81789 8.46875C5.21771 8.46875 4.67433 8.34194 4.16458 8.082V2.73644C4.68221 2.93641 5.22852 3.03453 5.81752 3.0345H5.81796C6.85289 3.03444 7.86877 2.72969 8.85118 2.43497C9.81114 2.147 10.718 1.875 11.6154 1.875C12.2156 1.875 12.759 2.00181 13.2687 2.26172V7.60734C12.751 7.40734 12.2046 7.30925 11.6154 7.30925C10.5804 7.30925 9.56446 7.61403 8.58199 7.90878Z" fill="white"/>
</g>
<defs>
<clipPath id="clip0_4868_6013">
<rect width="16" height="16" fill="white" transform="translate(0.716797 0.9375)"/>
</clipPath>
</defs>
</svg>
