<svg width="28" height="29" viewBox="0 0 28 29" fill="none" xmlns="http://www.w3.org/2000/svg">
<path d="M2.625 9.58789C2.76755 9.58789 2.90408 9.64432 3.00488 9.74512C3.10568 9.84592 3.16211 9.98245 3.16211 10.125V24.125C3.16211 24.4466 3.29019 24.755 3.51758 24.9824L3.60645 25.0625C3.82225 25.2394 4.0935 25.3379 4.375 25.3379H21C21.3216 25.3379 21.63 25.2098 21.8574 24.9824C22.0848 24.755 22.2129 24.4466 22.2129 24.125V21.5C22.2129 21.3574 22.2693 21.2209 22.3701 21.1201L22.4521 21.0527C22.5397 20.9944 22.6432 20.9629 22.75 20.9629C22.8926 20.9629 23.0291 21.0193 23.1299 21.1201L23.1973 21.2021C23.2556 21.2897 23.2871 21.3932 23.2871 21.5V24.125L23.2764 24.3516C23.2313 24.8001 23.0544 25.2256 22.7686 25.5742L22.6172 25.7422C22.2421 26.1173 21.7498 26.3488 21.2266 26.4014L21 26.4121H4.375C3.84431 26.4115 3.33265 26.2271 2.92578 25.8936L2.75781 25.7422C2.329 25.3134 2.08862 24.7314 2.08789 24.125V10.125C2.08789 9.98245 2.14432 9.84592 2.24512 9.74512C2.34592 9.64432 2.48245 9.58789 2.625 9.58789ZM22.4023 11.9072C22.4366 11.9158 22.4699 11.9281 22.502 11.9434C22.5657 11.9737 22.6227 12.0169 22.6699 12.0693H22.6709C23.0661 12.491 23.2861 13.0471 23.2871 13.625V16.25C23.2871 16.3568 23.2556 16.4603 23.1973 16.5479L23.1299 16.6299C23.0291 16.7307 22.8926 16.7871 22.75 16.7871C22.6432 16.7871 22.5397 16.7556 22.4521 16.6973L22.3701 16.6299C22.2693 16.5291 22.2129 16.3926 22.2129 16.25V13.625L22.207 13.5107C22.1811 13.2464 22.0683 12.9966 21.8848 12.8018V12.8008C21.8606 12.7756 21.8381 12.749 21.8193 12.7197L21.7705 12.624C21.7446 12.5575 21.7325 12.4864 21.7344 12.415C21.7362 12.3436 21.7519 12.2732 21.7812 12.208L21.835 12.1152C21.8557 12.0864 21.8792 12.0594 21.9053 12.0352L21.9902 11.9707C22.0205 11.9521 22.0524 11.9361 22.0859 11.9238L22.1895 11.8975C22.2246 11.892 22.2602 11.89 22.2959 11.8916L22.4023 11.9072ZM17.7979 11.3379C17.9403 11.338 18.077 11.3944 18.1777 11.4951L18.2451 11.5771C18.3034 11.6647 18.335 11.7683 18.335 11.875C18.335 11.9817 18.3034 12.0853 18.2451 12.1729L18.1777 12.2549C18.077 12.3556 17.9403 12.412 17.7979 12.4121H17.0625C16.9199 12.4121 16.7834 12.3557 16.6826 12.2549C16.5818 12.1541 16.5254 12.0176 16.5254 11.875C16.5254 11.7324 16.5818 11.5959 16.6826 11.4951C16.7834 11.3943 16.9199 11.3379 17.0625 11.3379H17.7979Z" fill="#6A7A8C" stroke="#6A7A8C" stroke-width="0.2"/>
<path d="M19.9092 2.62793C20.8237 2.5154 21.754 2.64085 22.6094 2.99512L22.9697 3.15918C23.7925 3.57368 24.4964 4.19514 25.0107 4.96484L25.2188 5.30176C25.6727 6.10364 25.9121 7.01159 25.9121 7.9375L25.9053 8.20312C25.8427 9.43669 25.3555 10.6108 24.5264 11.5264L24.3438 11.7188C23.4035 12.659 22.1498 13.2133 20.8281 13.2803L20.5625 13.2871C19.6366 13.2871 18.7286 13.0477 17.9268 12.5938L17.5898 12.3857C16.8201 11.8714 16.1987 11.1675 15.7842 10.3447L15.6201 9.98438C15.2153 9.00687 15.109 7.93125 15.3154 6.89355L15.4072 6.50879C15.6533 5.6209 16.1246 4.80895 16.7793 4.1543L17.0693 3.88477C17.7671 3.2833 18.6106 2.87107 19.5186 2.69043L19.9092 2.62793ZM20.2461 3.67383C19.512 3.7283 18.8025 3.97191 18.1875 4.38281C17.5725 4.79373 17.0764 5.35637 16.7451 6.01367L16.6133 6.30176C16.2897 7.08289 16.2052 7.94224 16.3701 8.77148L16.4424 9.0791C16.639 9.78867 17.0169 10.4368 17.54 10.96L17.7715 11.1758C18.3291 11.6564 19.003 11.9856 19.7285 12.1299L20.041 12.1807C20.7716 12.2705 21.5149 12.1698 22.1982 11.8867L22.4863 11.7549C23.1436 11.4236 23.7063 10.9275 24.1172 10.3125L24.2832 10.043C24.6457 9.40234 24.8379 8.67716 24.8379 7.9375L24.832 7.72559C24.7821 6.73981 24.393 5.80097 23.7305 5.06934L23.584 4.91602C22.7825 4.11457 21.6959 3.66338 20.5625 3.66211L20.2461 3.67383Z" fill="#6A7A8C" stroke="#6A7A8C" stroke-width="0.2"/>
<path d="M23.625 15.7129C23.7676 15.7129 23.9041 15.7693 24.0049 15.8701L24.0723 15.9521C24.1306 16.0397 24.1621 16.1432 24.1621 16.25V21.5C24.1621 21.6068 24.1306 21.7103 24.0723 21.7979L24.0049 21.8799C23.9041 21.9807 23.7676 22.0371 23.625 22.0371H19.25C18.4636 22.0371 17.7071 21.7451 17.127 21.2197L17.0137 21.1113C16.4206 20.5182 16.0879 19.7137 16.0879 18.875C16.0879 18.0363 16.4206 17.2318 17.0137 16.6387L17.127 16.5303C17.7071 16.0049 18.4636 15.7129 19.25 15.7129H23.625ZM19.25 16.7871C18.6964 16.7871 18.1649 17.007 17.7734 17.3984C17.382 17.7899 17.1621 18.3214 17.1621 18.875C17.1621 19.4286 17.382 19.9601 17.7734 20.3516C18.1649 20.743 18.6964 20.9629 19.25 20.9629H23.0879V16.7871H19.25ZM15.75 7.83789C15.8926 7.83789 16.0291 7.89432 16.1299 7.99512C16.2307 8.09592 16.2871 8.23245 16.2871 8.375C16.2871 8.51755 16.2307 8.65408 16.1299 8.75488C16.0291 8.85568 15.8926 8.91211 15.75 8.91211H4.44434L4.34082 8.91992C4.13465 8.943 3.93628 9.01247 3.76074 9.12305L3.67578 9.18164C3.4557 9.34459 3.28871 9.56921 3.19727 9.82715L3.17188 9.97559C3.16613 10.0254 3.16254 10.0757 3.16211 10.126C3.16189 10.285 3.19319 10.4429 3.25391 10.5898L3.30469 10.6973C3.36074 10.8023 3.43209 10.8989 3.5166 10.9834L3.60547 11.0635C3.69737 11.1388 3.79995 11.2005 3.91016 11.2461L4.02246 11.2861C4.13648 11.3206 4.25546 11.3381 4.375 11.3379H17.7979C17.9403 11.338 18.077 11.3944 18.1777 11.4951C18.2784 11.5959 18.335 11.7325 18.335 11.875C18.335 12.0175 18.2784 12.1541 18.1777 12.2549C18.077 12.3556 17.9403 12.412 17.7979 12.4121H4.375C4.14961 12.4123 3.92588 12.3795 3.71094 12.3145L3.49902 12.2393C3.29099 12.1532 3.09729 12.0367 2.92383 11.8945L2.75684 11.7432C2.59754 11.5839 2.4632 11.4021 2.35742 11.2041L2.26074 11.001C2.1459 10.7233 2.0876 10.4255 2.08789 10.125V10.124L2.10352 9.85547C2.11371 9.76595 2.12861 9.67689 2.14844 9.58887L2.15039 9.58301L2.21191 9.39941C2.37304 8.97882 2.64863 8.6096 3.00879 8.33496L3.16699 8.22461C3.54565 7.98079 3.98567 7.84634 4.43848 7.83789H15.75Z" fill="#6A7A8C" stroke="#6A7A8C" stroke-width="0.2"/>
<path d="M19.8496 17.4893C20.1235 17.4348 20.408 17.4634 20.666 17.5703C20.9239 17.6772 21.1447 17.8578 21.2998 18.0898L21.3545 18.1797C21.4742 18.3913 21.5371 18.6307 21.5371 18.875C21.5371 19.2496 21.3889 19.6091 21.124 19.874C20.8591 20.1389 20.4996 20.2871 20.125 20.2871C19.8807 20.2871 19.6413 20.2242 19.4297 20.1045L19.3398 20.0498C19.1367 19.914 18.9727 19.7279 18.8633 19.5107L18.8203 19.416C18.7134 19.158 18.6848 18.8735 18.7393 18.5996L18.7637 18.498C18.8286 18.2635 18.9531 18.0489 19.126 17.876C19.3235 17.6784 19.5756 17.5438 19.8496 17.4893ZM20.0273 18.5518L19.9375 18.5947C19.9098 18.6133 19.8852 18.6356 19.8643 18.6611L19.8135 18.7461C19.788 18.8076 19.781 18.8751 19.7939 18.9404L19.8271 19.0342C19.8427 19.0633 19.8631 19.0897 19.8867 19.1133C19.9339 19.1605 19.9941 19.193 20.0596 19.2061C20.1249 19.219 20.1924 19.212 20.2539 19.1865C20.3155 19.161 20.3682 19.1179 20.4053 19.0625L20.4482 18.9727C20.4578 18.9412 20.4629 18.9082 20.4629 18.875C20.4629 18.7855 20.4266 18.7 20.3633 18.6367C20.3 18.5734 20.2145 18.5371 20.125 18.5371C20.0918 18.5371 20.0588 18.5422 20.0273 18.5518ZM18.6406 4.78223C19.9623 4.84922 21.216 5.40355 22.1562 6.34375L22.3389 6.53613C23.2273 7.51715 23.7232 8.79524 23.7246 10.125L23.7148 10.2305C23.6942 10.3338 23.643 10.4293 23.5674 10.5049C23.4666 10.6057 23.3301 10.6621 23.1875 10.6621C23.0449 10.6621 22.9084 10.6057 22.8076 10.5049C22.7068 10.4041 22.6504 10.2676 22.6504 10.125L22.6445 9.91309C22.5946 8.92731 22.2055 7.98847 21.543 7.25684L21.3965 7.10352C20.6451 6.35216 19.6431 5.90898 18.5869 5.85547L18.375 5.84961C18.2324 5.84961 18.0959 5.79318 17.9951 5.69238C17.8943 5.59158 17.8379 5.45505 17.8379 5.3125C17.8379 5.16995 17.8943 5.03342 17.9951 4.93262C18.0959 4.83182 18.2324 4.77539 18.375 4.77539L18.6406 4.78223Z" fill="#6A7A8C" stroke="#6A7A8C" stroke-width="0.2"/>
<path d="M18.5537 6.5293C19.4431 6.57439 20.2873 6.94839 20.9199 7.58105C21.5945 8.25589 21.9735 9.17081 21.9746 10.125L21.9648 10.2305C21.9442 10.3338 21.893 10.4293 21.8174 10.5049C21.7166 10.6057 21.5801 10.6621 21.4375 10.6621C21.2949 10.6621 21.1584 10.6057 21.0576 10.5049C20.9568 10.4041 20.9004 10.2676 20.9004 10.125L20.8877 9.87598C20.8299 9.29799 20.5745 8.75417 20.1602 8.33984C19.7458 7.92552 19.202 7.67011 18.624 7.6123L18.375 7.59961C18.2324 7.59961 18.0959 7.54318 17.9951 7.44238C17.8943 7.34158 17.8379 7.20505 17.8379 7.0625C17.8379 6.91995 17.8943 6.78342 17.9951 6.68262C18.0959 6.58182 18.2324 6.52539 18.375 6.52539L18.5537 6.5293Z" fill="#6A7A8C" stroke="#6A7A8C" stroke-width="0.2"/>
<path d="M18.375 8.27539C18.8657 8.27539 19.3367 8.46946 19.6836 8.81641C20.0305 9.16335 20.2246 9.63435 20.2246 10.125C20.2246 10.2318 20.1931 10.3353 20.1348 10.4229L20.0674 10.5049C19.9666 10.6057 19.8301 10.6621 19.6875 10.6621C19.5807 10.6621 19.4772 10.6306 19.3896 10.5723L19.3076 10.5049C19.2068 10.4041 19.1504 10.2676 19.1504 10.125C19.1504 9.91946 19.0682 9.72249 18.9229 9.57715C18.7775 9.43181 18.5805 9.34961 18.375 9.34961C18.2324 9.34961 18.0959 9.29318 17.9951 9.19238C17.8943 9.09158 17.8379 8.95505 17.8379 8.8125C17.8379 8.66995 17.8943 8.53342 17.9951 8.43262C18.0959 8.33182 18.2324 8.27539 18.375 8.27539Z" fill="#6A7A8C" stroke="#6A7A8C" stroke-width="0.2"/>
</svg>
