<svg width="12" height="13" viewBox="0 0 12 13" fill="none" xmlns="http://www.w3.org/2000/svg">
<path d="M5.28779 0.584821L0.296185 5.5764C-0.0975077 5.9701 -0.0975077 6.6086 0.296185 7.0023C0.689878 7.39599 1.32839 7.39599 1.72208 7.0023L6.00023 2.72412L10.2784 7.0023C10.6721 7.39599 11.3106 7.39599 11.7043 7.0023C12.098 6.6086 12.098 5.9701 11.7043 5.5764L6.71268 0.584821C6.31997 0.191128 5.68148 0.191128 5.28779 0.584821ZM4.98552 6.58662L0.808796 10.5495C0.389633 10.9477 0.389633 11.5927 0.808796 11.9909C1.22796 12.3891 1.90794 12.3891 2.32761 11.9909L5.74493 8.74844L9.16225 11.9909C9.58143 12.3891 10.2619 12.3891 10.6811 11.9909C11.1002 11.5927 11.1002 10.9477 10.6811 10.5495L6.50434 6.58662C6.08517 6.18842 5.4052 6.18842 4.98552 6.58662Z" fill="url(#paint0_linear_4323_5397)"/>
<defs>
<linearGradient id="paint0_linear_4323_5397" x1="11.9995" y1="6.28955" x2="0.000915527" y2="6.28955" gradientUnits="userSpaceOnUse">
<stop stop-color="#5A43C6"/>
<stop offset="1" stop-color="#8761FF"/>
</linearGradient>
</defs>
</svg>
