<svg width="30" height="30" viewBox="0 0 30 30" fill="none" xmlns="http://www.w3.org/2000/svg">
<circle cx="15" cy="15" r="15" fill="white"/>
<path d="M16.4733 9.74619C17.3524 10.2974 17.9688 11.2301 18.0811 12.3128C18.4497 12.4862 18.852 12.5763 19.2594 12.5766C20.7995 12.5766 22.0478 11.3283 22.0478 9.78843C22.0478 8.24829 20.7995 7 19.2594 7C17.7339 7.00047 16.4966 8.22646 16.4733 9.74619ZM14.6466 15.4554C16.1867 15.4554 17.435 14.2069 17.435 12.667C17.435 11.1271 16.1865 9.87883 14.6466 9.87883C13.1067 9.87883 11.8577 11.1274 11.8577 12.6673C11.8577 14.2072 13.1067 15.4554 14.6466 15.4554ZM15.8294 15.6455H13.4633C11.4946 15.6455 9.89303 17.2473 9.89303 19.216V22.1095L9.90039 22.1548L10.0997 22.2172C11.9784 22.8043 13.6106 23 14.9541 23C17.5781 23 19.099 22.2519 19.1927 22.2042L19.379 22.11H19.3989V19.216C19.3996 17.2473 17.798 15.6455 15.8294 15.6455ZM20.4426 12.7669H18.0948C18.071 13.6735 17.6898 14.5339 17.0342 15.1605C18.7841 15.6809 20.0644 17.3036 20.0644 19.2202V20.1119C22.3826 20.027 23.7184 19.37 23.8065 19.3258L23.9927 19.2314H24.0126V16.3369C24.0126 14.3685 22.4111 12.7669 20.4426 12.7669ZM9.75376 12.5771C10.2992 12.5771 10.8068 12.4179 11.2367 12.1467C11.3716 11.2741 11.8358 10.4864 12.5339 9.94574C12.5367 9.89354 12.5417 9.84181 12.5417 9.78914C12.5417 8.249 11.2932 7.00071 9.75376 7.00071C8.21338 7.00071 6.96533 8.249 6.96533 9.78914C6.96533 11.3286 8.21338 12.5771 9.75376 12.5771ZM12.2579 15.1605C11.606 14.5368 11.2254 13.682 11.198 12.7802C11.111 12.7738 11.0248 12.7669 10.9361 12.7669H8.57024C6.60159 12.7669 5 14.3685 5 16.3369V19.2309L5.00736 19.2755L5.20666 19.3384C6.71382 19.8089 8.05892 20.0258 9.22725 20.0941V19.2202C9.22772 17.3036 10.5076 15.6813 12.2579 15.1605Z" fill="#222222"/>
</svg>
