<svg width="30" height="30" viewBox="0 0 30 30" fill="none" xmlns="http://www.w3.org/2000/svg">
<circle cx="15" cy="15" r="15" fill="white"/>
<path d="M21.74 6.33325C18.88 6.33325 15.0453 8.29459 12.4693 11.6666H10.3333C8.79065 11.6666 7.90665 12.8186 7.29731 14.0359L6.47998 15.6666H10.3333L12.3333 17.6666L14.3333 19.6666V23.5186L15.964 22.7026C17.1813 22.0946 18.3333 21.2093 18.3333 19.6666V17.5306C21.7053 14.9546 23.6666 11.1186 23.6666 8.25992V6.33325H21.74ZM18.3333 10.3333C18.6869 10.3333 19.0261 10.4737 19.2761 10.7238C19.5262 10.9738 19.6666 11.313 19.6666 11.6666C19.6666 12.0202 19.5262 12.3593 19.2761 12.6094C19.0261 12.8594 18.6869 12.9999 18.3333 12.9999C17.9797 12.9999 17.6406 12.8594 17.3905 12.6094C17.1405 12.3593 17 12.0202 17 11.6666C17 11.313 17.1405 10.9738 17.3905 10.7238C17.6406 10.4737 17.9797 10.3333 18.3333 10.3333ZM9.66665 18.3333L8.99998 18.9999C8.03731 19.9626 7.66665 22.3333 7.66665 22.3333C7.66665 22.3333 9.93065 22.0693 11 20.9999L11.6666 20.3333L9.66665 18.3333Z" fill="black"/>
</svg>
