<svg width="30" height="30" viewBox="0 0 30 30" fill="none" xmlns="http://www.w3.org/2000/svg">
<circle cx="15" cy="15" r="15" fill="white"/>
<path d="M13.0111 24.9525C13.2757 25.0656 13.5833 24.9712 13.7379 24.7271L20.7691 13.5552C20.8251 13.4666 20.8563 13.3645 20.8594 13.2597C20.8625 13.1549 20.8374 13.0512 20.7868 12.9594C20.7362 12.8676 20.6619 12.791 20.5716 12.7377C20.4813 12.6844 20.3784 12.6563 20.2736 12.6563H15.5809L17.3261 5.73015C17.3965 5.45034 17.254 5.16136 16.9891 5.04749C16.7259 4.93421 16.4163 5.02917 16.2624 5.27292L9.23114 16.4448C9.17517 16.5334 9.144 16.6355 9.14088 16.7403C9.13777 16.8451 9.16283 16.9488 9.21344 17.0406C9.26406 17.1324 9.33837 17.209 9.42865 17.2623C9.51892 17.3156 9.62184 17.3437 9.72669 17.3437H14.4193L12.6741 24.2699C12.6037 24.5497 12.7462 24.8387 13.0111 24.9525Z" fill="black"/>
</svg>
