<svg width="224" height="57" viewBox="0 0 224 57" fill="none" xmlns="http://www.w3.org/2000/svg">
<path d="M91.6006 14.1224L81.4873 40.6948L71.4243 14.1224H63.3504L76.3402 46.8259C77.1686 48.9117 79.187 50.2825 81.4326 50.2825C83.6781 50.2825 85.6966 48.9117 86.525 46.8259L99.5105 14.1224H91.6006Z" fill="white"/>
<path d="M111.865 22.9242C103.691 22.9242 97.509 28.9544 97.509 36.9189C97.509 44.8835 103.695 50.9137 111.865 50.9137C120.036 50.9137 126.23 44.8835 126.23 36.9189C126.23 28.9544 120.044 22.9242 111.865 22.9242ZM111.865 44.3116C107.673 44.3116 104.532 41.1115 104.532 36.9231C104.532 32.7348 107.673 29.5305 111.865 29.5305C116.058 29.5305 119.208 32.7306 119.208 36.9231C119.208 41.1157 116.117 44.3116 111.865 44.3116Z" fill="white"/>
<path d="M145.666 23.1344C142.155 23.1344 139.27 24.8122 137.176 27.5918V23.5549H130.36V50.2829H137.176V37.5454C137.176 33.0417 140.212 30.1612 145.666 30.1612H146.659V23.1344H145.666Z" fill="white"/>
<path d="M163.954 29.7912V23.555H157.769V16.4272H150.952V41.8432C150.952 47.3477 154.152 50.2829 160.279 50.2829H163.95V44.0467H161.276C159.072 44.0467 157.764 42.7851 157.764 40.691V29.787H163.95L163.954 29.7912Z" fill="white"/>
<path d="M194.846 37.0281C194.846 28.9584 188.66 22.9282 180.481 22.9282C172.302 22.9282 166.124 28.9584 166.124 36.923C166.124 44.8875 172.31 50.9177 180.59 50.9177C187.087 50.9177 192.386 47.3013 194.429 42.0028H187.037C185.83 43.7311 183.525 44.9927 180.746 44.9927C177.079 44.9927 174.299 42.7387 173.412 39.2779H194.635C194.795 38.5966 194.846 37.7598 194.846 37.0281ZM173.458 34.299C174.4 30.9979 177.024 28.8491 180.481 28.8491C183.937 28.8491 186.721 31.0484 187.558 34.299H173.458Z" fill="white"/>
<path d="M203.353 23.5591H195.073L204.559 36.8684L194.913 50.287H203.092L209.063 41.5319L215.093 50.287H223.373L203.353 23.5591Z" fill="white"/>
<path d="M223.218 23.5591L215.392 34.5976L211.3 29.0762L215.043 23.5591H223.218Z" fill="#8761FF"/>
<path d="M20.4959 0.190855L25.849 9.46321L10.4834 35.8085L27.4302 35.7118L32.6992 44.9421L7.16974 44.7781C6.31189 44.7612 5.51712 44.2861 5.10501 43.5333L1.05966 36.6327C0.655966 35.901 0.655966 35.0305 1.05966 34.2988L20.5001 0.186646L20.4959 0.190855Z" fill="#8761FF"/>
<path d="M59.0528 45.3964H48.3465L33.2121 18.9165L24.8187 33.6387L14.1922 33.5841L27.0979 11.5533C27.5394 10.8174 28.351 10.3674 29.2088 10.3843L37.207 10.3296C38.0439 10.3464 38.7966 10.7837 39.2255 11.4986L59.0486 45.3921L59.0528 45.3964Z" fill="#8761FF"/>
<path d="M0.626572 56.1868L5.97973 46.9144L36.4797 47.049L27.9222 32.4193L33.2838 23.2437L45.9076 45.4342C46.3239 46.187 46.3071 47.1121 45.8614 47.848L41.9085 54.8033C41.4754 55.5182 40.7227 55.9513 39.8901 55.9681L0.626572 56.1868Z" fill="#8761FF"/>
</svg>
