<svg width="17" height="16" viewBox="0 0 17 16" fill="none" xmlns="http://www.w3.org/2000/svg">
<path d="M14.6975 11.1412L13.9688 10.6554V6.4375C13.9688 3.75234 11.9055 1.54041 9.28125 1.30278V0.46875C9.28125 0.209875 9.07137 0 8.8125 0C8.55363 0 8.34375 0.209875 8.34375 0.46875V1.30278C5.71947 1.54041 3.65625 3.75234 3.65625 6.4375V10.6554L2.9275 11.1412C2.79706 11.2282 2.71875 11.3745 2.71875 11.5312V13.4062C2.71875 13.6651 2.92862 13.875 3.1875 13.875H6.27734C6.49738 15.0821 7.55003 16 8.8125 16C10.0749 16 11.1276 15.0821 11.3477 13.875H14.4375C14.6964 13.875 14.9062 13.6651 14.9062 13.4062V11.5312C14.9062 11.3745 14.8279 11.2282 14.6975 11.1412ZM8.8125 15.0625C8.06909 15.0625 7.43953 14.5607 7.23878 13.875H10.3862C10.1855 14.5607 9.55591 15.0625 8.8125 15.0625ZM13.9688 12.9375C13.5337 12.9375 4.16831 12.9375 3.65625 12.9375V11.7821L4.385 11.2963C4.51541 11.2093 4.59375 11.063 4.59375 10.9062V6.4375C4.59375 4.11128 6.48628 2.21875 8.8125 2.21875C11.1387 2.21875 13.0312 4.11128 13.0312 6.4375V10.9062C13.0312 11.063 13.1096 11.2093 13.24 11.2963L13.9688 11.7821V12.9375Z" fill="white"/>
</svg>
