<svg width="16" height="16" viewBox="0 0 16 16" fill="none" xmlns="http://www.w3.org/2000/svg">
<path d="M5.27273 8.54545V13.4545C5.27273 13.5992 5.21526 13.7379 5.11297 13.8402C5.01067 13.9425 4.87194 14 4.72727 14H2.54545C2.40079 14 2.26205 13.9425 2.15976 13.8402C2.05747 13.7379 2 13.5992 2 13.4545V8.54545C2 8.40079 2.05747 8.26205 2.15976 8.15976C2.26205 8.05747 2.40079 8 2.54545 8H4.72727C4.87194 8 5.01067 8.05747 5.11297 8.15976C5.21526 8.26205 5.27273 8.40079 5.27273 8.54545ZM9.09091 2H6.90909C6.76443 2 6.62569 2.05747 6.5234 2.15976C6.4211 2.26205 6.36364 2.40079 6.36364 2.54545V13.4545C6.36364 13.5992 6.4211 13.7379 6.5234 13.8402C6.62569 13.9425 6.76443 14 6.90909 14H9.09091C9.23557 14 9.37431 13.9425 9.4766 13.8402C9.5789 13.7379 9.63636 13.5992 9.63636 13.4545V2.54545C9.63636 2.40079 9.5789 2.26205 9.4766 2.15976C9.37431 2.05747 9.23557 2 9.09091 2ZM13.4545 4.72727H11.2727C11.1281 4.72727 10.9893 4.78474 10.887 4.88703C10.7847 4.98933 10.7273 5.12806 10.7273 5.27273V13.4545C10.7273 13.5992 10.7847 13.7379 10.887 13.8402C10.9893 13.9425 11.1281 14 11.2727 14H13.4545C13.5992 14 13.7379 13.9425 13.8402 13.8402C13.9425 13.7379 14 13.5992 14 13.4545V5.27273C14 5.12806 13.9425 4.98933 13.8402 4.88703C13.7379 4.78474 13.5992 4.72727 13.4545 4.72727Z" fill="white"/>
</svg>
