<svg width="26" height="26" viewBox="0 0 26 26" fill="none" xmlns="http://www.w3.org/2000/svg">
<path d="M22.75 1.35425H16.25C15.203 1.35425 14.3542 2.20304 14.3542 3.25008V9.75008C14.3542 10.7971 15.203 11.6459 16.25 11.6459H22.75C23.797 11.6459 24.6458 10.7971 24.6458 9.75008V3.25008C24.6458 2.20304 23.797 1.35425 22.75 1.35425Z" fill="white"/>
<path d="M24.6274 18.1599L20.8401 14.3726C20.4842 14.0181 20.0023 13.8191 19.5 13.8191C18.9977 13.8191 18.5158 14.0181 18.1599 14.3726L14.3726 18.1599C14.0179 18.5157 13.8187 18.9976 13.8187 19.5C13.8187 20.0024 14.0179 20.4843 14.3726 20.8401L18.1599 24.6274C18.5157 24.9821 18.9976 25.1813 19.5 25.1813C20.0024 25.1813 20.4843 24.9821 20.8401 24.6274L24.6274 20.8401C24.9824 20.4844 25.1818 20.0025 25.1818 19.5C25.1818 18.9975 24.9824 18.5155 24.6274 18.1599Z" fill="white"/>
<path d="M9.74999 1.35425H3.24999C2.20295 1.35425 1.35416 2.20304 1.35416 3.25008V9.75008C1.35416 10.7971 2.20295 11.6459 3.24999 11.6459H9.74999C10.797 11.6459 11.6458 10.7971 11.6458 9.75008V3.25008C11.6458 2.20304 10.797 1.35425 9.74999 1.35425Z" fill="white"/>
<path d="M9.74999 14.3542H3.24999C2.20295 14.3542 1.35416 15.203 1.35416 16.2501V22.7501C1.35416 23.7971 2.20295 24.6459 3.24999 24.6459H9.74999C10.797 24.6459 11.6458 23.7971 11.6458 22.7501V16.2501C11.6458 15.203 10.797 14.3542 9.74999 14.3542Z" fill="white"/>
</svg>
