<svg width="21" height="21" viewBox="0 0 21 21" fill="none" xmlns="http://www.w3.org/2000/svg">
<g clip-path="url(#clip0_4837_21913)">
<path d="M20.1425 4.16406H13.7718C13.4253 4.16406 13.1441 4.44492 13.1441 4.7918V6.05977C13.1441 6.40625 13.4253 6.6875 13.7718 6.6875H16.4628L10.9566 12.1934L8.62222 9.85898C8.12925 9.36641 7.33042 9.36641 6.83745 9.85898L0.954248 15.743C0.708936 15.9879 0.708936 16.3855 0.954248 16.6305L1.85073 17.5273C2.09565 17.7723 2.49331 17.7723 2.73823 17.5273L7.73003 12.5355L10.064 14.8699C10.5569 15.363 11.3559 15.3632 11.8488 14.8699L18.2468 8.47188V11.1629C18.2468 11.5094 18.5277 11.7906 18.8746 11.7906H20.1425C20.4894 11.7906 20.7703 11.5094 20.7703 11.1629V4.7918C20.7703 4.44492 20.4894 4.16406 20.1425 4.16406Z" fill="white"/>
</g>
<defs>
<clipPath id="clip0_4837_21913">
<rect width="20" height="20" fill="white" transform="translate(0.770264 0.9375)"/>
</clipPath>
</defs>
</svg>
