<svg width="20" height="21" viewBox="0 0 20 21" fill="none" xmlns="http://www.w3.org/2000/svg">
<path d="M0.833313 17.4564V15.123C0.833313 14.6508 0.954841 14.2168 1.1979 13.821C1.44095 13.4251 1.76387 13.123 2.16665 12.9147C3.02776 12.4842 3.90276 12.1612 4.79165 11.946C5.68054 11.7307 6.58331 11.623 7.49998 11.623C8.41665 11.623 9.31942 11.7307 10.2083 11.946C11.0972 12.1612 11.9722 12.4842 12.8333 12.9147C13.2361 13.123 13.559 13.4251 13.8021 13.821C14.0451 14.2168 14.1666 14.6508 14.1666 15.123V17.4564H0.833313ZM15.8333 17.4564V14.9564C15.8333 14.3453 15.6632 13.7585 15.3229 13.196C14.9826 12.6335 14.5 12.1508 13.875 11.748C14.5833 11.8314 15.25 11.9737 15.875 12.1751C16.5 12.3765 17.0833 12.623 17.625 12.9147C18.125 13.1925 18.5069 13.5015 18.7708 13.8418C19.0347 14.1821 19.1666 14.5536 19.1666 14.9564V17.4564H15.8333ZM7.49998 10.7897C6.58331 10.7897 5.79859 10.4633 5.14581 9.81055C4.49304 9.15777 4.16665 8.37305 4.16665 7.45638C4.16665 6.53971 4.49304 5.75499 5.14581 5.10221C5.79859 4.44944 6.58331 4.12305 7.49998 4.12305C8.41665 4.12305 9.20137 4.44944 9.85415 5.10221C10.5069 5.75499 10.8333 6.53971 10.8333 7.45638C10.8333 8.37305 10.5069 9.15777 9.85415 9.81055C9.20137 10.4633 8.41665 10.7897 7.49998 10.7897ZM15.8333 7.45638C15.8333 8.37305 15.5069 9.15777 14.8541 9.81055C14.2014 10.4633 13.4166 10.7897 12.5 10.7897C12.3472 10.7897 12.1528 10.7724 11.9166 10.7376C11.6805 10.7029 11.4861 10.6647 11.3333 10.623C11.7083 10.1786 11.9965 9.68555 12.1979 9.14388C12.3993 8.60221 12.5 8.03971 12.5 7.45638C12.5 6.87305 12.3993 6.31055 12.1979 5.76888C11.9965 5.22721 11.7083 4.73416 11.3333 4.28971C11.5278 4.22027 11.7222 4.17513 11.9166 4.1543C12.1111 4.13346 12.3055 4.12305 12.5 4.12305C13.4166 4.12305 14.2014 4.44944 14.8541 5.10221C15.5069 5.75499 15.8333 6.53971 15.8333 7.45638ZM2.49998 15.7897H12.5V15.123C12.5 14.9703 12.4618 14.8314 12.3854 14.7064C12.309 14.5814 12.2083 14.4842 12.0833 14.4147C11.3333 14.0397 10.5764 13.7585 9.81248 13.571C9.04859 13.3835 8.27776 13.2897 7.49998 13.2897C6.7222 13.2897 5.95137 13.3835 5.18748 13.571C4.42359 13.7585 3.66665 14.0397 2.91665 14.4147C2.79165 14.4842 2.69095 14.5814 2.61456 14.7064C2.53817 14.8314 2.49998 14.9703 2.49998 15.123V15.7897ZM7.49998 9.12305C7.95831 9.12305 8.35067 8.95985 8.67706 8.63346C9.00345 8.30707 9.16665 7.91471 9.16665 7.45638C9.16665 6.99805 9.00345 6.60569 8.67706 6.2793C8.35067 5.95291 7.95831 5.78971 7.49998 5.78971C7.04165 5.78971 6.64929 5.95291 6.3229 6.2793C5.99651 6.60569 5.83331 6.99805 5.83331 7.45638C5.83331 7.91471 5.99651 8.30707 6.3229 8.63346C6.64929 8.95985 7.04165 9.12305 7.49998 9.12305Z" fill="#E8EAED"/>
</svg>
