<svg width="20" height="21" viewBox="0 0 20 21" fill="none" xmlns="http://www.w3.org/2000/svg">
<path d="M4.24998 13.8752C3.94442 13.3474 3.71526 12.8057 3.56248 12.2502C3.4097 11.6946 3.33331 11.1252 3.33331 10.5418C3.33331 8.68072 3.97915 7.09739 5.27081 5.79183C6.56248 4.48627 8.13887 3.8335 9.99998 3.8335H10.1458L8.81248 2.50016L9.97915 1.3335L13.3125 4.66683L9.97915 8.00016L8.81248 6.8335L10.1458 5.50016H9.99998C8.61109 5.50016 7.43053 5.98975 6.45831 6.96891C5.48609 7.94808 4.99998 9.13905 4.99998 10.5418C4.99998 10.9029 5.04165 11.2571 5.12498 11.6043C5.20831 11.9516 5.33331 12.2918 5.49998 12.6252L4.24998 13.8752ZM10.0208 19.6668L6.68748 16.3335L10.0208 13.0002L11.1875 14.1668L9.85415 15.5002H9.99998C11.3889 15.5002 12.5694 15.0106 13.5416 14.0314C14.5139 13.0522 15 11.8613 15 10.4585C15 10.0974 14.9583 9.74322 14.875 9.396C14.7916 9.04877 14.6666 8.7085 14.5 8.37516L15.75 7.12516C16.0555 7.65294 16.2847 8.19461 16.4375 8.75016C16.5903 9.30572 16.6666 9.87516 16.6666 10.4585C16.6666 12.3196 16.0208 13.9029 14.7291 15.2085C13.4375 16.5141 11.8611 17.1668 9.99998 17.1668H9.85415L11.1875 18.5002L10.0208 19.6668Z" fill="#E8EAED"/>
</svg>
