<svg width="28" height="29" viewBox="0 0 28 29" fill="none" xmlns="http://www.w3.org/2000/svg">
<path d="M24.1719 11.7002H22.4001V8.74688C22.4003 8.42097 22.1362 8.15657 21.8102 8.15639H17.0842C16.7581 8.15639 16.4937 8.42079 16.4937 8.74688C16.4937 9.07311 16.7581 9.33751 17.0842 9.33751H21.2187V11.7H5.86252C5.21006 11.7 4.68122 11.1712 4.68122 10.5189C4.68122 9.8664 5.21001 9.33756 5.86252 9.33756H11.1782C11.5044 9.33756 11.7688 9.07316 11.7688 8.74688C11.7688 8.4206 11.5044 8.15625 11.1782 8.15625H5.86252C4.55824 8.1574 3.50125 9.21445 3.5 10.5188V23.5126C3.50143 24.8168 4.55824 25.8736 5.86252 25.8751H24.1719C24.4981 25.8751 24.7625 25.6107 24.7625 25.2844V12.2907C24.7628 11.9648 24.4987 11.7004 24.1726 11.7002L24.1719 11.7002ZM5.86252 24.694C5.21038 24.6933 4.68191 24.1648 4.68122 23.5127V12.5528C5.03871 12.7656 5.44652 12.879 5.86252 12.8814H23.5814V16.4252H19.447C19.1211 16.425 18.8567 16.6891 18.8565 17.0152V20.5596C18.8565 20.8857 19.1209 21.1502 19.447 21.1502H23.5814V24.694L5.86252 24.694ZM23.5812 19.969H20.0376V17.6063H23.5812V19.969Z" fill="#6A7A8C"/>
<path d="M11.5458 5.66436L13.5392 4.06901V9.92807C13.5392 10.2543 13.8036 10.5187 14.1298 10.5187C14.4559 10.5187 14.7203 10.2543 14.7203 9.92811V4.06896L16.7139 5.66413C16.9686 5.86799 17.3404 5.82673 17.5444 5.57184C17.7483 5.31699 17.7068 4.94513 17.452 4.74127L14.499 2.37884C14.394 2.29541 14.2639 2.25 14.1298 2.25C13.9958 2.25 13.8657 2.29541 13.7607 2.37884L10.8075 4.74136C10.5527 4.94517 10.5113 5.31704 10.7153 5.57193C10.9191 5.82678 11.291 5.86803 11.5457 5.66422V5.66436H11.5458Z" fill="#6A7A8C"/>
</svg>
