<svg width="20" height="21" viewBox="0 0 20 21" fill="none" xmlns="http://www.w3.org/2000/svg">
<path d="M9.99998 18.8332C8.06942 18.3471 6.47567 17.2394 5.21873 15.5103C3.96179 13.7811 3.33331 11.8609 3.33331 9.74984V4.6665L9.99998 2.1665L16.6666 4.6665V9.74984C16.6666 11.8609 16.0382 13.7811 14.7812 15.5103C13.5243 17.2394 11.9305 18.3471 9.99998 18.8332ZM9.99998 17.0832C11.4444 16.6248 12.6389 15.7082 13.5833 14.3332C14.5278 12.9582 15 11.4304 15 9.74984V5.81234L9.99998 3.93734L4.99998 5.81234V9.74984C4.99998 11.4304 5.4722 12.9582 6.41665 14.3332C7.36109 15.7082 8.55553 16.6248 9.99998 17.0832Z" fill="#E8EAED"/>
</svg>
