<svg width="30" height="30" viewBox="0 0 30 30" fill="none" xmlns="http://www.w3.org/2000/svg">
<circle cx="15" cy="15" r="15" fill="white"/>
<path d="M13.011 24.9525C13.2756 25.0656 13.5832 24.9712 13.7377 24.7271L20.769 13.5552C20.825 13.4666 20.8561 13.3645 20.8592 13.2597C20.8624 13.1549 20.8373 13.0512 20.7867 12.9594C20.7361 12.8676 20.6618 12.791 20.5715 12.7377C20.4812 12.6844 20.3783 12.6563 20.2734 12.6563H15.5808L17.326 5.73015C17.3964 5.45034 17.2539 5.16136 16.989 5.04749C16.7258 4.93421 16.4162 5.02917 16.2623 5.27292L9.23102 16.4448C9.17504 16.5334 9.14387 16.6355 9.14076 16.7403C9.13765 16.8451 9.1627 16.9488 9.21332 17.0406C9.26393 17.1324 9.33825 17.209 9.42852 17.2623C9.5188 17.3156 9.62172 17.3437 9.72656 17.3437H14.4192L12.674 24.2699C12.6036 24.5497 12.7461 24.8387 13.011 24.9525Z" fill="black"/>
</svg>
