<svg width="12" height="13" viewBox="0 0 12 13" fill="none" xmlns="http://www.w3.org/2000/svg">
<path d="M8.39749 6.9891L7.05841 7.6425C6.30734 8.00709 5.72534 8.64667 5.43301 9.4287L4.67401 11.4448C4.64725 11.5168 4.59073 11.5732 4.51885 11.6014C4.45223 11.626 4.37859 11.6234 4.31391 11.5941C4.24922 11.5647 4.19868 11.5111 4.17325 11.4448L3.41545 9.42858C3.12198 8.64861 2.5401 8.01119 1.79005 7.64802L0.451211 6.99618C0.397528 6.96926 0.353999 6.92569 0.327131 6.87198C0.29612 6.808 0.29177 6.73433 0.315034 6.66715C0.338299 6.59996 0.387276 6.54476 0.451211 6.51366L1.79017 5.86182C2.54155 5.49764 3.12368 4.85792 3.41557 4.07562L4.17469 2.05938C4.20145 2.0043 4.24669 1.95918 4.30165 1.93242C4.3681 1.89987 4.44474 1.89495 4.51481 1.91874C4.58488 1.94253 4.64267 1.9931 4.67557 2.05938L5.43469 4.0713C5.72587 4.85383 6.3074 5.49407 7.05841 5.85894L8.39737 6.50934C8.44281 6.53152 8.48108 6.56606 8.50778 6.609C8.53448 6.65194 8.54854 6.70153 8.54833 6.7521C8.54785 6.80177 8.53345 6.85031 8.50676 6.8922C8.48008 6.93409 8.4423 6.96767 8.39749 6.9891ZM11.6143 3.3591L11.1199 3.6003C10.8549 3.7288 10.6494 3.95409 10.5456 4.2297L10.266 4.9749C10.2501 5.0157 10.218 5.04774 10.1773 5.06286C10.1588 5.06991 10.139 5.07324 10.1191 5.07264C10.0993 5.07204 10.0798 5.06753 10.0617 5.05937C10.0436 5.05121 10.0272 5.03956 10.0137 5.02509C10.0001 5.01061 9.98946 4.9936 9.98245 4.97502L9.70213 4.22982C9.59865 3.954 9.393 3.72859 9.12781 3.6003L8.63341 3.3591C8.60291 3.34463 8.57833 3.32009 8.56381 3.28962C8.55506 3.27173 8.54991 3.2523 8.54868 3.23243C8.54744 3.21255 8.55013 3.19263 8.55659 3.1738C8.56305 3.15496 8.57316 3.13759 8.58634 3.12266C8.59953 3.10774 8.61552 3.09556 8.63341 3.08682L9.12781 2.84562C9.39323 2.71722 9.59893 2.49145 9.70213 2.21526L9.98245 1.4709C9.99774 1.43936 10.0231 1.41378 10.0545 1.39818C10.0922 1.37992 10.1356 1.37732 10.1752 1.39095C10.2148 1.40457 10.2475 1.43331 10.266 1.4709L10.5456 2.21526C10.6491 2.49124 10.8547 2.71689 11.1199 2.8455L11.6143 3.0867C11.6447 3.1011 11.6695 3.12582 11.6846 3.1563C11.6934 3.17422 11.6985 3.1937 11.6997 3.21361C11.7009 3.23352 11.6982 3.25346 11.6916 3.27231C11.6851 3.29115 11.6749 3.30852 11.6616 3.32341C11.6484 3.33831 11.6323 3.35043 11.6143 3.3591Z" fill="url(#paint0_linear_4298_6141)"/>
<defs>
<linearGradient id="paint0_linear_4298_6141" x1="6.00012" y1="11.6181" x2="6.00012" y2="1.38232" gradientUnits="userSpaceOnUse">
<stop stop-color="#5A43C6"/>
<stop offset="1" stop-color="#8761FF"/>
</linearGradient>
</defs>
</svg>
