<svg width="30" height="30" viewBox="0 0 30 30" fill="none" xmlns="http://www.w3.org/2000/svg">
<circle cx="15" cy="15" r="15" fill="white"/>
<path d="M9.54395 17.8572C9.54395 17.9858 9.6118 18.1036 9.72251 18.1679L14.4938 20.9214V15.2072L9.54395 12.3502V17.8572ZM11.9939 10.5216L9.90108 11.7287L14.851 14.5894L16.9438 13.3787L11.9939 10.5216ZM19.8009 11.7287L15.0296 8.97522C14.9188 8.91451 14.7831 8.91451 14.6724 8.97522L12.7082 10.1109L17.6581 12.968L19.8009 11.7287ZM15.2081 20.9214L19.9795 18.1679C20.0902 18.1036 20.158 17.9858 20.158 17.8572V12.3502L15.2081 15.2072V20.9214Z" fill="#222222"/>
<path d="M22.9865 18.0499C22.8753 17.9847 22.7549 17.9366 22.6294 17.9071V12.0965C23.5279 11.8786 23.9872 10.7969 23.5111 10.0001C23.0658 9.19583 21.8926 9.03904 21.2612 9.71439L16.2223 6.8073C16.4934 5.92196 15.777 4.98448 14.8509 5.00019C13.9252 4.98591 13.2085 5.92018 13.4795 6.8073L8.44034 9.71439C7.8175 9.0469 6.64431 9.19011 6.19074 10.0001C5.71575 10.7976 6.17289 11.8783 7.07287 12.0965V17.9071C6.17182 18.1178 5.71575 19.2056 6.19074 19.9999C6.64645 20.8124 7.815 20.9588 8.4407 20.2856L13.4799 23.1927C13.2088 24.0784 13.9252 25.0155 14.8513 24.9998C15.777 25.0141 16.4938 24.0795 16.2227 23.1927L21.2619 20.2856C22.8297 21.7342 24.7943 19.2371 22.9865 18.0499ZM21.9151 17.9035C21.158 18.0714 20.6712 18.9446 20.9008 19.6678L15.8688 22.5713C15.6081 22.307 15.2509 22.1427 14.8509 22.1427C14.4509 22.1427 14.0938 22.307 13.8331 22.5713L8.80105 19.6678C9.03176 18.9439 8.54213 18.0724 7.78678 17.9035V12.0965C8.5432 11.9286 9.03033 11.0554 8.80105 10.3322L13.8331 7.42872C14.0938 7.693 14.4509 7.85728 14.8509 7.85728C15.2509 7.85728 15.6081 7.693 15.8688 7.42872L20.9008 10.3322C20.6697 11.0561 21.1594 11.9276 21.9151 12.0965V17.9035Z" fill="#222222"/>
</svg>
