<svg width="24" height="25" viewBox="0 0 24 25" fill="none" xmlns="http://www.w3.org/2000/svg">
<g clip-path="url(#clip0_4064_3927)">
<path d="M12 24.1865C18.6274 24.1865 24 18.8139 24 12.1865C24 5.55911 18.6274 0.186523 12 0.186523C5.37258 0.186523 0 5.55911 0 12.1865C0 18.8139 5.37258 24.1865 12 24.1865Z" fill="url(#paint0_linear_4064_3927)"/>
<path fill-rule="evenodd" clip-rule="evenodd" d="M5.43189 12.06C8.93014 10.5358 11.2628 9.53104 12.43 9.04557C15.7626 7.65946 16.455 7.41868 16.9064 7.41073C17.0056 7.40898 17.2276 7.43358 17.3714 7.55025C17.4928 7.64875 17.5262 7.78182 17.5422 7.87522C17.5581 7.96862 17.578 8.18138 17.5622 8.34762C17.3816 10.2451 16.6002 14.8498 16.2027 16.975C16.0345 17.8743 15.7032 18.1758 15.3826 18.2053C14.6857 18.2694 14.1566 17.7447 13.4816 17.3023C12.4255 16.61 11.8288 16.179 10.8036 15.5034C9.61884 14.7227 10.3869 14.2936 11.0621 13.5923C11.2388 13.4088 14.3092 10.616 14.3686 10.3626C14.376 10.331 14.3829 10.2129 14.3128 10.1505C14.2426 10.0881 14.139 10.1095 14.0643 10.1264C13.9584 10.1505 12.2712 11.2656 9.00264 13.472C8.52373 13.8008 8.08994 13.9611 7.70129 13.9527C7.27283 13.9434 6.44864 13.7104 5.83594 13.5113C5.08444 13.267 4.48716 13.1378 4.53917 12.7229C4.56626 12.5069 4.86383 12.2859 5.43189 12.06Z" fill="white"/>
</g>
<defs>
<linearGradient id="paint0_linear_4064_3927" x1="12" y1="0.186523" x2="12" y2="24.0085" gradientUnits="userSpaceOnUse">
<stop stop-color="#2AABEE"/>
<stop offset="1" stop-color="#229ED9"/>
</linearGradient>
<clipPath id="clip0_4064_3927">
<rect width="24" height="24" fill="white" transform="translate(0 0.186523)"/>
</clipPath>
</defs>
</svg>
