<svg width="32" height="32" viewBox="0 0 32 32" fill="none" xmlns="http://www.w3.org/2000/svg">
<path d="M16 1.33325C7.89334 1.33325 1.33334 7.89325 1.33334 15.9999C1.33334 24.1066 7.89334 30.6666 16 30.6666C24.1067 30.6666 30.6667 24.1066 30.6667 15.9999C30.6667 7.89325 24.1067 1.33325 16 1.33325ZM13.3333 27.0133C8.36001 25.8133 4.66668 21.3333 4.66668 15.9999C4.66668 10.6666 8.36001 6.18659 13.3333 4.98659V6.37325C9.10668 7.53325 6.00001 11.3999 6.00001 15.9999C6.00001 20.5999 9.10668 24.4666 13.3333 25.6266V27.0133ZM16.8267 23.5199H15.12V21.6666C14.1733 21.4933 13.4 21.0666 12.8 20.3999C12.2 19.7333 11.9067 18.9333 11.9067 17.9866H13.76C13.76 18.5866 13.9733 19.0666 14.4 19.4399C14.8267 19.8133 15.3867 19.9999 16.0667 19.9999C16.7067 19.9999 17.2267 19.8533 17.6267 19.5599C18.0267 19.2666 18.2267 18.8799 18.2267 18.4133C18.2267 18.1466 18.16 17.9199 18.0133 17.7199C17.8667 17.5199 17.68 17.3599 17.4533 17.2399C17.2267 17.1199 16.9467 17.0133 16.6267 16.9199C16.3067 16.8266 15.9867 16.7333 15.6533 16.6399C15.32 16.5466 14.9733 16.4533 14.6267 16.3599C14.28 16.2666 13.96 16.1333 13.6533 15.9733C13.3467 15.8133 13.0667 15.6266 12.8267 15.4133C12.5867 15.1999 12.4 14.9199 12.2667 14.5866C12.1333 14.2533 12.0533 13.8533 12.0533 13.4133C12.0533 12.5999 12.3333 11.9199 12.8933 11.3599C13.4533 10.7999 14.1867 10.4399 15.1067 10.3066V8.50659H16.8133V10.3466C17.7467 10.5199 18.4667 10.9333 18.9733 11.5599C19.48 12.1866 19.7333 12.9333 19.7333 13.7866H17.8133C17.8 13.2799 17.6 12.8533 17.24 12.5333C16.88 12.2133 16.3867 12.0399 15.7867 12.0399C15.2133 12.0399 14.76 12.1599 14.4133 12.4133C14.0667 12.6666 13.8933 12.9999 13.8933 13.4133C13.8933 13.6666 13.96 13.8799 14.1067 14.0533C14.2533 14.2266 14.44 14.3733 14.68 14.4933C14.92 14.6133 15.2 14.7066 15.5067 14.7866C15.8133 14.8666 16.1467 14.9599 16.48 15.0399C16.8133 15.1199 17.16 15.2133 17.5067 15.3199C17.8533 15.4266 18.1733 15.5599 18.4933 15.7199C18.8133 15.8799 19.08 16.0933 19.32 16.3199C19.56 16.5466 19.7467 16.8399 19.8933 17.1999C20.04 17.5599 20.1067 17.9733 20.1067 18.4399C20.1067 19.2933 19.8 20.0133 19.2 20.6266C18.6 21.2399 17.8133 21.5999 16.84 21.7333V23.5466L16.8267 23.5199ZM18.6667 27.0133V25.6266C22.8933 24.4666 26 20.5999 26 15.9999C26 11.3999 22.8933 7.53325 18.6667 6.37325V4.98659C23.64 6.18659 27.3333 10.6666 27.3333 15.9999C27.3333 21.3333 23.64 25.8133 18.6667 27.0133Z" fill="white"/>
</svg>
