<svg width="17" height="16" viewBox="0 0 17 16" fill="none" xmlns="http://www.w3.org/2000/svg">
<path d="M13.333 3.57324L12.333 2.57323C12.2353 2.47557 12.0771 2.47557 11.9795 2.57323C11.8818 2.6709 11.8818 2.8291 11.9795 2.92674L12.8027 3.74998L11.9795 4.57322C11.9326 4.6201 11.9062 4.68357 11.9062 4.74999V5.49999C11.9062 6.05152 12.3547 6.49999 12.9062 6.49999V10.75C12.9062 10.8879 12.7942 11 12.6562 11C12.5183 11 12.4062 10.8879 12.4062 10.75V10.25C12.4062 9.83641 12.0698 9.49999 11.6562 9.49999H11.4062V3.00001C11.4062 2.44848 10.9578 2 10.4062 2H5.40626C4.85475 2 4.40626 2.44848 4.40626 3.00001V12C3.85475 12 3.40625 12.4485 3.40625 13V13.75C3.40623 13.7828 3.41268 13.8154 3.42524 13.8457C3.43779 13.876 3.45621 13.9036 3.47943 13.9268C3.50265 13.95 3.53022 13.9685 3.56056 13.981C3.5909 13.9936 3.62342 14 3.65626 14H12.1562C12.1891 14 12.2216 13.9936 12.2519 13.981C12.2823 13.9685 12.3099 13.95 12.3331 13.9268C12.3563 13.9036 12.3747 13.876 12.3873 13.8457C12.3998 13.8154 12.4063 13.7828 12.4063 13.75V13C12.4063 12.4485 11.9578 12 11.4062 12V10H11.6563C11.7942 10 11.9063 10.1121 11.9063 10.25V10.75C11.9063 11.1636 12.2427 11.5 12.6563 11.5C13.0698 11.5 13.4063 11.1636 13.4063 10.75V3.75C13.4063 3.71717 13.3998 3.68466 13.3872 3.65433C13.3746 3.624 13.3562 3.59645 13.333 3.57324ZM4.90627 3.00001C4.90627 2.72438 5.13064 2.50001 5.40626 2.50001H10.4062C10.6819 2.50001 10.9062 2.72438 10.9062 3.00001V12H4.90625L4.90627 3.00001ZM11.9062 13V13.5H3.90626V13C3.90626 12.7243 4.13063 12.5 4.40626 12.5H11.4062C11.6819 12.5 11.9062 12.7243 11.9062 13ZM12.9062 6C12.6306 6 12.4063 5.77563 12.4063 5.50001V4.85351L12.9062 4.35352V6Z" fill="white" stroke="white" stroke-width="0.3"/>
<path d="M10.1563 3H5.65631C5.62348 2.99998 5.59096 3.00643 5.56062 3.01899C5.53027 3.03154 5.5027 3.04996 5.47948 3.07318C5.45626 3.0964 5.43785 3.12397 5.42529 3.15431C5.41274 3.18465 5.40629 3.21717 5.40631 3.25001V6.25464C5.40629 6.28748 5.41274 6.32 5.42529 6.35034C5.43785 6.38068 5.45626 6.40825 5.47948 6.43147C5.5027 6.45469 5.53027 6.47311 5.56062 6.48566C5.59096 6.49822 5.62348 6.50467 5.65631 6.50465H10.1563C10.1891 6.50467 10.2217 6.49822 10.252 6.48566C10.2823 6.47311 10.3099 6.45469 10.3331 6.43147C10.3564 6.40825 10.3748 6.38068 10.3873 6.35034C10.3999 6.32 10.4063 6.28748 10.4063 6.25464V3.24998C10.4063 3.21715 10.3999 3.18463 10.3873 3.1543C10.3748 3.12396 10.3563 3.09639 10.3331 3.07318C10.3099 3.04996 10.2823 3.03155 10.252 3.01899C10.2217 3.00643 10.1891 2.99998 10.1563 3ZM9.9063 6.00464H5.9063V3.49999H9.9063V6.00464Z" fill="white"/>
</svg>
