<svg width="30" height="30" viewBox="0 0 30 30" fill="none" xmlns="http://www.w3.org/2000/svg">
<circle cx="15" cy="15" r="15" fill="white"/>
<path d="M20.9098 7.5H8.26827C7.73355 7.50059 7.2209 7.71328 6.84279 8.09138C6.46469 8.46948 6.25201 8.98213 6.25141 9.51685C6.25928 10.6197 6.2458 19.1629 6.25141 20.4831C6.25201 21.0179 6.46469 21.5305 6.84279 21.9086C7.2209 22.2867 7.73355 22.4994 8.26827 22.5H20.9098C21.4446 22.4994 21.9572 22.2867 22.3353 21.9086C22.7134 21.5305 22.9261 21.0179 22.9267 20.4831V9.51685C22.9261 8.98213 22.7134 8.46948 22.3353 8.09138C21.9572 7.71328 21.4446 7.50059 20.9098 7.5ZM7.37501 9.51685C7.37531 9.28004 7.46951 9.05301 7.63697 8.88555C7.80442 8.7181 8.03145 8.62389 8.26827 8.6236H20.9098C21.1467 8.62389 21.3737 8.7181 21.5411 8.88555C21.7086 9.05301 21.8028 9.28004 21.8031 9.51685V10.8281H7.37501V9.51685ZM20.9098 21.3764H8.26827C8.03145 21.3761 7.80442 21.2819 7.63697 21.1144C7.46951 20.947 7.37531 20.72 7.37501 20.4831V11.9517H21.8031V14.3225H19.5514C19.2408 14.3177 18.9324 14.3747 18.644 14.4902C18.3557 14.6057 18.0932 14.7775 17.8719 14.9954C17.6505 15.2133 17.4748 15.4731 17.3548 15.7597C17.2348 16.0462 17.173 16.3537 17.173 16.6643C17.173 16.975 17.2348 17.2825 17.3548 17.569C17.4748 17.8555 17.6505 18.1153 17.8719 18.3332C18.0932 18.5512 18.3557 18.7229 18.644 18.8384C18.9324 18.954 19.2408 19.011 19.5514 19.0062H21.8031V20.4831C21.8028 20.72 21.7086 20.947 21.5411 21.1144C21.3737 21.2819 21.1467 21.3761 20.9098 21.3764ZM21.8031 17.882H19.5514C19.3892 17.8855 19.228 17.8566 19.0771 17.7969C18.9263 17.7373 18.7888 17.6481 18.6729 17.5346C18.557 17.4211 18.4649 17.2857 18.402 17.1361C18.3391 16.9866 18.3067 16.826 18.3067 16.6638C18.3067 16.5015 18.3391 16.341 18.402 16.1914C18.4649 16.0419 18.557 15.9064 18.6729 15.7929C18.7888 15.6795 18.9263 15.5903 19.0771 15.5306C19.228 15.471 19.3892 15.442 19.5514 15.4455H21.8031V17.882ZM19.6312 16.1022C19.7802 16.1022 19.9231 16.1614 20.0284 16.2668C20.1338 16.3722 20.193 16.515 20.193 16.664C20.193 16.813 20.1338 16.9559 20.0284 17.0613C19.9231 17.1667 19.7802 17.2258 19.6312 17.2258C19.4822 17.2258 19.3393 17.1667 19.2339 17.0613C19.1286 16.9559 19.0694 16.813 19.0694 16.664C19.0694 16.515 19.1286 16.3722 19.2339 16.2668C19.3393 16.1614 19.4822 16.1022 19.6312 16.1022Z" fill="#222222" stroke="#222222" stroke-width="0.5"/>
</svg>
