<svg width="16" height="16" viewBox="0 0 16 16" fill="none" xmlns="http://www.w3.org/2000/svg">
<path d="M12.7279 2H2.61461C2.18684 2.00048 1.77672 2.17062 1.47423 2.4731C1.17175 2.77559 1.00161 3.18571 1.00113 3.61348C1.00742 4.49573 0.996636 11.3303 1.00113 12.3865C1.00161 12.8143 1.17175 13.2244 1.47423 13.5269C1.77672 13.8294 2.18684 13.9995 2.61461 14H12.7279C13.1556 13.9995 13.5658 13.8294 13.8682 13.5269C14.1707 13.2244 14.3409 12.8143 14.3414 12.3865V3.61348C14.3409 3.18571 14.1707 2.77559 13.8682 2.4731C13.5658 2.17062 13.1556 2.00048 12.7279 2ZM1.90001 3.61348C1.90024 3.42403 1.97561 3.24241 2.10957 3.10844C2.24354 2.97448 2.42516 2.89911 2.61461 2.89888H12.7279C12.9173 2.89911 13.0989 2.97448 13.2329 3.10844C13.3669 3.24241 13.4422 3.42403 13.4425 3.61348V4.66247H1.90001V3.61348ZM12.7279 13.1011H2.61461C2.42516 13.1009 2.24354 13.0255 2.10957 12.8916C1.97561 12.7576 1.90024 12.576 1.90001 12.3865V5.56135H13.4425V7.45798H11.6411C11.3927 7.45413 11.1459 7.49974 10.9152 7.59217C10.6846 7.68459 10.4746 7.82198 10.2975 7.99633C10.1204 8.17068 9.97981 8.37851 9.88382 8.60773C9.78784 8.83694 9.7384 9.08296 9.7384 9.33146C9.7384 9.57996 9.78784 9.82598 9.88382 10.0552C9.97981 10.2844 10.1204 10.4922 10.2975 10.6666C10.4746 10.8409 10.6846 10.9783 10.9152 11.0708C11.1459 11.1632 11.3927 11.2088 11.6411 11.2049H13.4425V12.3865C13.4422 12.576 13.3669 12.7576 13.2329 12.8916C13.0989 13.0255 12.9173 13.1009 12.7279 13.1011ZM13.4425 10.3056H11.6411C11.5114 10.3084 11.3824 10.2853 11.2617 10.2375C11.141 10.1898 11.0311 10.1185 10.9383 10.0277C10.8456 9.93691 10.7719 9.82852 10.7216 9.70889C10.6713 9.58926 10.6454 9.46079 10.6454 9.33101C10.6454 9.20123 10.6713 9.07276 10.7216 8.95313C10.7719 8.8335 10.8456 8.72512 10.9383 8.63434C11.0311 8.54356 11.141 8.47222 11.2617 8.42449C11.3824 8.37677 11.5114 8.35362 11.6411 8.3564H13.4425V10.3056ZM11.7049 8.8818C11.8241 8.8818 11.9385 8.92915 12.0227 9.01343C12.107 9.09772 12.1544 9.21204 12.1544 9.33124C12.1544 9.45043 12.107 9.56475 12.0227 9.64904C11.9385 9.73332 11.8241 9.78067 11.7049 9.78067C11.5858 9.78067 11.4714 9.73332 11.3871 9.64904C11.3029 9.56475 11.2555 9.45043 11.2555 9.33124C11.2555 9.21204 11.3029 9.09772 11.3871 9.01343C11.4714 8.92915 11.5858 8.8818 11.7049 8.8818Z" fill="white"/>
</svg>
