<svg width="20" height="21" viewBox="0 0 20 21" fill="none" xmlns="http://www.w3.org/2000/svg">
<path d="M0.833313 17.9998L9.99998 2.1665L19.1666 17.9998H0.833313ZM3.70831 16.3332H16.2916L9.99998 5.49984L3.70831 16.3332ZM9.99998 15.4998C10.2361 15.4998 10.434 15.42 10.5937 15.2603C10.7535 15.1005 10.8333 14.9026 10.8333 14.6665C10.8333 14.4304 10.7535 14.2325 10.5937 14.0728C10.434 13.913 10.2361 13.8332 9.99998 13.8332C9.76387 13.8332 9.56595 13.913 9.40623 14.0728C9.24651 14.2325 9.16665 14.4304 9.16665 14.6665C9.16665 14.9026 9.24651 15.1005 9.40623 15.2603C9.56595 15.42 9.76387 15.4998 9.99998 15.4998ZM9.16665 12.9998H10.8333V8.83317H9.16665V12.9998Z" fill="#E8EAED"/>
</svg>
