<svg width="17" height="16" viewBox="0 0 17 16" fill="none" xmlns="http://www.w3.org/2000/svg">
<g clip-path="url(#clip0_4157_5316)">
<path d="M7.90625 6.99998C12.0484 6.99998 15.4063 5.8807 15.4063 4.49999C15.4063 3.11928 12.0484 2 7.90625 2C3.76411 2 0.40625 3.11928 0.40625 4.49999C0.40625 5.8807 3.76411 6.99998 7.90625 6.99998Z" fill="white"/>
<path d="M7.90625 6.99998C12.0484 6.99998 15.4063 5.8807 15.4063 4.49999C15.4063 3.11928 12.0484 2 7.90625 2C3.76411 2 0.40625 3.11928 0.40625 4.49999C0.40625 5.8807 3.76411 6.99998 7.90625 6.99998Z" fill="white"/>
<path d="M13.6839 7.69068C12.1184 8.21249 10.0665 8.49989 7.90625 8.49989C5.74596 8.49989 3.69409 8.21249 2.12861 7.69068C1.41219 7.45188 0.848252 7.18048 0.40625 6.89258V7.94987C0.40625 8.61764 1.18634 9.24547 2.60296 9.71762C4.01949 10.1898 5.9029 10.4499 7.90625 10.4499C9.9096 10.4499 11.793 10.1899 13.2095 9.71765C14.6261 9.24547 15.4063 8.61764 15.4063 7.94987V6.89258C14.9642 7.18048 14.4003 7.45183 13.6839 7.69068Z" fill="white"/>
<path d="M13.6839 11.1408C12.1184 11.6627 10.0665 11.9501 7.90625 11.9501C5.74596 11.9501 3.69406 11.6627 2.12861 11.1408C1.41216 10.902 0.848223 10.6307 0.40625 10.3428V11.5001C0.40625 12.8808 3.76411 14 7.90625 14C12.0484 14 15.4063 12.8808 15.4063 11.5001V10.3428C14.9643 10.6306 14.4003 10.9021 13.6839 11.1408Z" fill="white"/>
</g>
<defs>
<clipPath id="clip0_4157_5316">
<rect width="16" height="16" fill="white" transform="translate(0.40625)"/>
</clipPath>
</defs>
</svg>
